<svg xmlns="http://www.w3.org/2000/svg" viewBox="0 0 500 500"><g id="freepik--background-simple--inject-32"><path d="M459.24,137.52c-2.41-18.76-7.11-36.75-17-53.14C424,53.93,391,35.53,357.63,26.2c-28-7.82-58.16-10.08-86.09-2-30.66,8.87-56.39,29.29-84,45.3a437.69,437.69,0,0,1-63.1,29.66c-17.58,6.73-39.92,10.5-54.37,23.28a144.93,144.93,0,0,0-23.35,26.65C19.74,188.4,11,238.62,15.12,285.5c2.91,32.66,11.89,65.71,32,91.58,28.27,36.31,76.8,54.2,122.59,49.69,52-5.12,101.25-36.19,152.93-28.73,25.73,3.71,50.35,16.93,76.23,14.47,25.51-2.42,47.34-20,62.73-40.45,12.34-16.43,20.55-36.3,21.31-57,.83-22.39-9.31-42.81-14.4-64.19C459.66,213.5,464.09,175.27,459.24,137.52Z" style="fill:#92E3A9"></path><path d="M459.24,137.52c-2.41-18.76-7.11-36.75-17-53.14C424,53.93,391,35.53,357.63,26.2c-28-7.82-58.16-10.08-86.09-2-30.66,8.87-56.39,29.29-84,45.3a437.69,437.69,0,0,1-63.1,29.66c-17.58,6.73-39.92,10.5-54.37,23.28a144.93,144.93,0,0,0-23.35,26.65C19.74,188.4,11,238.62,15.12,285.5c2.91,32.66,11.89,65.71,32,91.58,28.27,36.31,76.8,54.2,122.59,49.69,52-5.12,101.25-36.19,152.93-28.73,25.73,3.71,50.35,16.93,76.23,14.47,25.51-2.42,47.34-20,62.73-40.45,12.34-16.43,20.55-36.3,21.31-57,.83-22.39-9.31-42.81-14.4-64.19C459.66,213.5,464.09,175.27,459.24,137.52Z" style="fill:#fff;opacity:0.7000000000000001"></path></g><g id="freepik--Floor--inject-32"><line x1="322" y1="464" x2="481" y2="464" style="fill:none;stroke:#263238;stroke-miterlimit:10"></line><line x1="16" y1="464" x2="314" y2="464" style="fill:none;stroke:#263238;stroke-miterlimit:10"></line></g><g id="freepik--Device--inject-32"><rect x="193.7" y="42.5" width="201.83" height="373.89" style="fill:#fff"></rect><rect x="193.7" y="352.63" width="201.83" height="63.76" style="fill:#dedede"></rect><path d="M401.59,116.06a2.49,2.49,0,0,0,2.49-2.49V88.64a2.49,2.49,0,0,0-2.49-2.49,2.42,2.42,0,0,0-.47,0V39.56a16.07,16.07,0,0,0-16.07-16.07H207.9a16.07,16.07,0,0,0-16.08,16.07V415.85a16.08,16.08,0,0,0,16.08,16.08H385.05a16.08,16.08,0,0,0,16.07-16.08V186.93a2.42,2.42,0,0,0,.47,0,2.5,2.5,0,0,0,2.49-2.5V159.55a2.49,2.49,0,0,0-2.49-2.49,2.42,2.42,0,0,0-.47.05v-5.64a2.42,2.42,0,0,0,.47.05,2.5,2.5,0,0,0,2.49-2.49V124.09a2.5,2.5,0,0,0-2.49-2.49,2.42,2.42,0,0,0-.47.05V116A2.42,2.42,0,0,0,401.59,116.06Zm-9.78,291.63H201.13V51.22H391.81Z" style="fill:#263238"></path><rect x="369.51" y="54.92" width="15.81" height="8.67" style="fill:none;stroke:#263238;stroke-linecap:round;stroke-linejoin:round;stroke-width:0.821067px"></rect><rect x="369.51" y="54.92" width="12.33" height="8.67" style="fill:#263238;stroke:#263238;stroke-linecap:round;stroke-linejoin:round;stroke-width:0.725073px"></rect><rect x="385.29" y="57.35" width="2.23" height="3.82" style="fill:#263238;stroke:#263238;stroke-linecap:round;stroke-linejoin:round;stroke-width:0.725073px"></rect><rect x="205.42" y="57.61" width="2.9" height="4.97" style="fill:#263238;stroke:#263238;stroke-linecap:round;stroke-linejoin:round;stroke-width:0.8830859999999999px"></rect><rect x="209.98" y="55.87" width="2.9" height="6.71" style="fill:#263238;stroke:#263238;stroke-linecap:round;stroke-linejoin:round;stroke-width:0.8830859999999999px"></rect><rect x="214.53" y="53.8" width="2.9" height="8.78" style="fill:#263238;stroke:#263238;stroke-linecap:round;stroke-linejoin:round;stroke-width:0.8830859999999999px"></rect><rect x="204.2" y="68.41" width="183.11" height="48.12" style="fill:#92E3A9"></rect><line x1="250.48" y1="75.34" x2="250.48" y2="110.67" style="fill:none;stroke:#fff;stroke-miterlimit:10"></line><line x1="297.14" y1="75.34" x2="297.14" y2="110.67" style="fill:none;stroke:#fff;stroke-miterlimit:10"></line><line x1="343.81" y1="75.34" x2="343.81" y2="110.67" style="fill:none;stroke:#fff;stroke-miterlimit:10"></line><path d="M399.47,186.93a2.42,2.42,0,0,0,.47,0,2.5,2.5,0,0,0,2.49-2.5v-8.93l-12.27,21.63V407.69H270.79L257,431.93H383.39a16.08,16.08,0,0,0,16.08-16.08Z" style="fill:#fff;opacity:0.15"></path></g><g id="freepik--qr-code--inject-32"><path d="M288.73,282.43V271l0,0h5.71v-5.75h-5.69c0-1.91,0-3.83,0-5.74H300.2v-5.71h5.72v5.68h5.74V248h17.2v5.71h5.69V248h-5.71v-5.76H317.37V230.86H300.16v5.72H288.75v11.47h5.68v5.72h-5.71v5.73H283v-5.74H265.81v-5.71H283V202.17h5.75v0q0,8.28,0,16.56v.62h5.73V207.92h5.71v11.45h5.76v5.71h28.66v5.72h5.74v5.77l0,0h-5.71v5.75h5.69v11.48h5.75l0,0v11.46h-5.69V276.7H346v5.73h11.45v5.72H340.33V299.6h-5.72v-5.72h-11.5l0,0v-5.73h-5.72v-5.72h11.41v-5.73H300.21v5.7H288.73Zm34.38-17.2v-5.7h-5.69v5.69h5.71v5.71h11.42v-5.7Zm-11.48,0H306v5.67h5.67Zm11.51-28.73h5.67v-5.68h-5.67Z" style="fill:#263238"></path><path d="M237.14,219.33V179.25h40.07v40.08ZM242.89,185v28.61h28.6V185Z" style="fill:#263238"></path><path d="M357.48,219.34H317.41V179.27h40.07ZM351.76,185h-28.6v28.6h28.6Z" style="fill:#263238"></path><path d="M237.15,259.51h40.08v40.08H237.15Zm34.35,5.75H242.89v28.61H271.5Z" style="fill:#263238"></path><path d="M288.72,202.17V190.7H283V179.26h28.61v11.42H306v5.74h5.67v11.44h-5.71v-5.69H300.2v-5.72h-5.72v5.7h-5.77Zm5.75-11.51h5.68V185h-5.68Z" style="fill:#263238"></path><path d="M265.78,230.82v5.73h11.45v5.72H260.06v11.46h-22.9v-11.4h5.67V248h11.5V230.82h11.46Z" style="fill:#263238"></path><path d="M288.71,282.42v5.73h5.73v5.72h5.71v5.73H283V282.43h5.69Z" style="fill:#263238"></path><path d="M254.33,230.82H242.87v5.71h-5.71v-11.4h17.15v5.7Z" style="fill:#263238"></path><path d="M357.48,242.27H351.8V230.84h-5.72v-5.72h11.4Z" style="fill:#263238"></path><path d="M265.79,230.84v-5.71h11.43v5.69H265.78Z" style="fill:#263238"></path><path d="M346.06,253.77v-5.71h5.69v5.69H346Z" style="fill:#263238"></path><path d="M351.81,259.52h5.67v5.68h-5.67Z" style="fill:#263238"></path><path d="M305.92,219.37v-5.71h5.7v5.69h-5.71Z" style="fill:#263238"></path><path d="M288.73,271H283v-5.72h5.69V271Z" style="fill:#263238"></path><path d="M346.06,276.7V271h5.69v5.69h-5.69Z" style="fill:#263238"></path><path d="M340.31,236.57H346v5.72h-5.69v-5.75Z" style="fill:#263238"></path><path d="M311.62,293.87h-5.68V288.2h5.68Z" style="fill:#263238"></path><path d="M323.11,293.88v5.71h-5.69V293.9h5.71Z" style="fill:#263238"></path><path d="M357.48,299.61h-5.67v-5.68h5.67Z" style="fill:#263238"></path><path d="M311.66,248H306v-5.69h5.7V248Z" style="fill:#263238"></path><path d="M265.75,207.87H248.61V190.73h17.14Z" style="fill:#263238"></path><path d="M328.87,207.86V190.72H346v17.14Z" style="fill:#263238"></path><path d="M248.61,288.13V271h17.14v17.14Z" style="fill:#263238"></path><polyline points="253.79 165.67 228.69 165.67 228.69 193.36" style="fill:none;stroke:#92E3A9;stroke-miterlimit:10;stroke-width:2px"></polyline><polyline points="345.07 165.67 370.16 165.67 370.16 193.36" style="fill:none;stroke:#92E3A9;stroke-miterlimit:10;stroke-width:2px"></polyline><polyline points="253.79 311.49 228.69 311.49 228.69 283.8" style="fill:none;stroke:#92E3A9;stroke-miterlimit:10;stroke-width:2px"></polyline><polyline points="345.07 311.49 370.16 311.49 370.16 283.8" style="fill:none;stroke:#92E3A9;stroke-miterlimit:10;stroke-width:2px"></polyline></g><g id="freepik--Character--inject-32"><rect x="166.42" y="171.67" width="13.67" height="28.67" rx="2.67" style="fill:#263238;stroke:#263238;stroke-miterlimit:10"></rect><rect x="167.62" y="174.2" width="11.25" height="23.6" style="fill:#fff;stroke:#263238;stroke-miterlimit:10"></rect><path d="M57.66,312.17A21.6,21.6,0,0,0,69,308.88c-.22,6.38-.39,11.21-.39,11.21s1.1,1.92,1.65,2.75,5.22,3.57,5.77,6.05,3,3.85,2.75,7.42-3.3-.28-2.75.55,2.2,3.57,2.2,6.05-5.22,2.47-7.15.82-8.24-5.5-8.79-9.07l-2.15-8Z" style="fill:#fff;stroke:#263238;stroke-miterlimit:10"></path><path d="M69.08,332l1.34,6s4.33,3.33,4.66,5.67" style="fill:#fff;stroke:#263238;stroke-miterlimit:10"></path><line x1="76.02" y1="336.86" x2="74.08" y2="333" style="fill:#fff;stroke:#263238;stroke-miterlimit:10"></line><path d="M90.69,458.77s-1.57,12.87-.35,14.44A9.17,9.17,0,0,0,96.25,477c2.78.35,7.48-1.22,7.48-1.22a28.38,28.38,0,0,0,9.74.87c5-.52,8.34-2.43,8.69-4.87s-4-3.47-6.43-6.08-6.31-7.23-6.31-7.23l-1-3.38s-5.91,3-9.73,3.13a23.11,23.11,0,0,1-6.44-.52Z" style="fill:#fff;stroke:#263238;stroke-miterlimit:10"></path><path d="M122.16,471.81a1.86,1.86,0,0,0-.08-.85c-1.15.48-2.62,1.06-4.44,1.72-5.22,1.92-7.83.35-10.43.35s-2.79,2.78-10.09.87c-4.77-1.25-6.56-2.86-7.24-3.84a6.86,6.86,0,0,0,.46,3.15A9.17,9.17,0,0,0,96.25,477c2.78.35,7.48-1.22,7.48-1.22a28.38,28.38,0,0,0,9.74.87C118.51,476.16,121.81,474.25,122.16,471.81Z" style="fill:#fff;stroke:#263238;stroke-miterlimit:10"></path><path d="M81.42,299s-7,23.5-4.5,40,14.5,47.5,14.5,47.5-1.5,11.5-1.5,15.5-3.5,11.5-1,19.5,2.5,29,2.5,30.5-1,9.5-1,9.5,2,3,9.5,3,9.5-6,9.5-6,7.5-44.5,7.5-51.5,8-33,11-43.5a89.6,89.6,0,0,1,8.65-20.68c2-3.5.85-45.82.85-45.82l-57-5Z" style="fill:#737373;stroke:#263238;stroke-miterlimit:10"></path><path d="M120.77,462.08s7.48,2.95,11.13,4.69,6.08,1.91,6.08,4.7-6.6,5.56-10.6,6.26-10.44.52-11.13.69-13.74,2.09-15.3-1.22.17-14.6.17-14.6A50.57,50.57,0,0,0,120.77,462.08Z" style="fill:#fff;stroke:#263238;stroke-miterlimit:10"></path><path d="M116.25,478.42c.69-.17,7.13,0,11.13-.69s10.6-3.48,10.6-6.26a3.56,3.56,0,0,0-.16-1.08,48.36,48.36,0,0,1-5.23,2.64c-4.87,2.09-11.3,3.48-21,3.31a44.88,44.88,0,0,1-11.14-1.43,7.34,7.34,0,0,0,.54,2.29C102.51,480.51,115.55,478.6,116.25,478.42Z" style="fill:#fff;stroke:#263238;stroke-miterlimit:10"></path><path d="M137.92,301s3,40.5-3,71-16,72-16.5,74,3.5,7.5,3.5,7.5v8s-3.5,3.5-11.5,4.5-10.5-1.5-10.5-1.5-2-13.5-2-23,2-42,2-42,4.5-33,4-38-2-20.5-2-20.5l-8-9.5" style="fill:#737373;stroke:#263238;stroke-miterlimit:10"></path><path d="M53.87,293.38l15.73-2.76c-.07,2.13.38-11.33.38-12.33,0-2.2,5.22-16,5.22-16s4.12,17.88,4.12,20.08-1.65,19,.55,21.17,9.9,6.6,26.95,6.05,29.7-1.93,33-5.23-.55-13.47-.83-14.84,4.4-37.4,4.4-37.4,18.42,19.25,29.42,16.5S178.59,223,178.59,223l.55-12.37s3.57-9.07,3.57-10.45-3.57-11.27-3.57-11.27-2.2-1.93-3.58,2.75a45.12,45.12,0,0,0-1.65,7.7s-3.3,2.47-3,6.05a23.65,23.65,0,0,0,1.37,6.32L164.84,236s-8.25-9.35-8.8-11-.28-7.7-7.15-11.28-20.9-3.85-20.9-3.85l-38.77.28S71.07,211.75,67,215.32s-16.77,48.95-16.77,55.82c0,2.15,1.12,8.81,2.69,17.05Z" style="fill:#fff;stroke:#263238;stroke-miterlimit:10"></path><path d="M179.14,188.93s-.83,6.87-.28,8.25a15.36,15.36,0,0,1,.55,7.42" style="fill:none;stroke:#263238;stroke-miterlimit:10"></path><path d="M172.81,268.67c11-2.75,5.78-45.65,5.78-45.65l.12-2.77a9.94,9.94,0,0,0-8.54-1.69L164.84,236s-8.25-9.35-8.8-11-.28-7.7-7.15-11.28-20.9-3.85-20.9-3.85l-38.77.28S71.07,211.75,67,215.32s-16.77,48.95-16.77,55.82c0,4.08,4.06,24.42,7.48,41A21.6,21.6,0,0,0,69,308.88c.4-11.89,1-29.16,1-30.59,0-2.2,5.22-16,5.22-16s4.12,17.88,4.12,20.08-1.65,19,.55,21.17,9.9,6.6,26.95,6.05,29.7-1.93,33-5.23-.55-13.47-.83-14.84,4.4-37.4,4.4-37.4S161.81,271.42,172.81,268.67Z" style="fill:#92E3A9;stroke:#263238;stroke-miterlimit:10"></path><polyline points="69.8 247.21 75.2 262.34 64.08 243.33" style="fill:none;stroke:#263238;stroke-miterlimit:10"></polyline><line x1="66.75" y1="238.67" x2="68.66" y2="244.02" style="fill:none;stroke:#263238;stroke-miterlimit:10"></line><path d="M104.83,248.28c2.43,5.46,6,12.31,10.25,16.72" style="fill:none;stroke:#263238;stroke-miterlimit:10"></path><path d="M101.42,239.67s.75,2.25,2.09,5.52" style="fill:none;stroke:#263238;stroke-miterlimit:10"></path><path d="M107.42,258s6,12,9,14.33" style="fill:none;stroke:#263238;stroke-miterlimit:10"></path><line x1="152.8" y1="243.45" x2="155.08" y2="241.33" style="fill:none;stroke:#263238;stroke-miterlimit:10"></line><polyline points="149.08 240.33 143.39 252.17 150.73 245.37" style="fill:none;stroke:#263238;stroke-miterlimit:10"></polyline><path d="M175.08,247c-.33-2.33-10.24-11.05-10.24-11.05s10.24,4.05,12.91,7.72" style="fill:none;stroke:#263238;stroke-miterlimit:10"></path><path d="M131.84,173.8s.55,6.88,1.38,8,1.37,9.62,0,12.1-2.2,5.5-3,6.32-3.85.83-5,.83-13.47-.55-13.47-.55l.28-17.33S115.07,170.23,131.84,173.8Z" style="fill:#fff;stroke:#263238;stroke-miterlimit:10"></path><path d="M109.85,154.56S98.57,158.13,96.1,168s5.5,21.17,5.5,21.17,2.2,8,4.12,9.63,9.62,0,12.1-.55,8-15.4,8-15.4,0,3.57,1.65,3.57,1.38-4.67,1.38-5.5,7.7-6.6,7.7-16.49S128,150.16,120,150.71,109.85,154.56,109.85,154.56Z" style="fill:#263238;stroke:#263238;stroke-miterlimit:10"></path><path d="M133.22,209.27s-1.65-5.77-2.48-6.59-6.05-4.13-14.57-4.68-21.17-.27-22.27.28-1.38,5.22-1.38,5.22-3.57,3.3-4.4,5.23-1.65,2.74,6,9.07,11.83,8.8,19.8,6.87,19.52-13.47,19.52-13.47Z" style="fill:#92E3A9;stroke:#263238;stroke-miterlimit:10"></path><path d="M113.55,213.17A83.29,83.29,0,0,0,129.09,206" style="fill:none;stroke:#263238;stroke-miterlimit:10"></path><path d="M92.52,204.6s5,9.9,13.75,9.9a18.92,18.92,0,0,0,3.55-.38" style="fill:none;stroke:#263238;stroke-miterlimit:10"></path></g></svg>